<svg width="12" height="16" viewBox="0 0 12 16" fill="none" xmlns="http://www.w3.org/2000/svg">
<path fill-rule="evenodd" clip-rule="evenodd" d="M1.5 14.5V1.5H10.5V14.5H9V11C9 10.4477 8.55228 10 8 10H4C3.44772 10 3 10.4477 3 11V14.5H1.5ZM4.5 14.5H7.5V11.5H4.5V14.5ZM0 1C0 0.447715 0.447715 0 1 0H11C11.5523 0 12 0.447715 12 1V15C12 15.5523 11.5523 16 11 16H1C0.447715 16 0 15.5523 0 15V1ZM3 3.75C3 3.33579 3.33579 3 3.75 3H4.75C5.16421 3 5.5 3.33579 5.5 3.75C5.5 4.16421 5.16421 4.5 4.75 4.5H3.75C3.33579 4.5 3 4.16421 3 3.75ZM7.25 3C6.83579 3 6.5 3.33579 6.5 3.75C6.5 4.16421 6.83579 4.5 7.25 4.5H8.25C8.66421 4.5 9 4.16421 9 3.75C9 3.33579 8.66421 3 8.25 3H7.25ZM3 7.25C3 6.83579 3.33579 6.5 3.75 6.5H4.75C5.16421 6.5 5.5 6.83579 5.5 7.25C5.5 7.66421 5.16421 8 4.75 8H3.75C3.33579 8 3 7.66421 3 7.25ZM7.25 6.5C6.83579 6.5 6.5 6.83579 6.5 7.25C6.5 7.66421 6.83579 8 7.25 8H8.25C8.66421 8 9 7.66421 9 7.25C9 6.83579 8.66421 6.5 8.25 6.5H7.25Z" fill="#737278"/>
</svg>
